<?xml version="1.0" encoding="utf-8"?><svg version="1.1" id="Layer_1" xmlns="http://www.w3.org/2000/svg" xmlns:xlink="http://www.w3.org/1999/xlink" x="0px" y="0px" viewBox="0 0 109.33 122.88" style="enable-background:new 0 0 109.33 122.88" xml:space="preserve"><style type="text/css"><![CDATA[
	.st0{fill:#FFFFFF;}
	.st1{fill-rule:evenodd;clip-rule:evenodd;fill:#262626;}
	.st2{fill-rule:evenodd;clip-rule:evenodd;fill:#FF0000;}
]]></style><g><path class="st1" d="M82.28,105.33h-10.8V90.47H56.14v14.86H45l18.64,17.54L82.28,105.33L82.28,105.33z M102.4,33.95H83.61 c-1.98,0-4.73-1.06-6.03-2.36c-1.3-1.3-2.09-3.65-2.09-5.61V6.95l0,0H25.83c-0.16,0-0.29,0.08-0.37,0.16 c-0.14,0.09-0.18,0.21-0.18,0.38v87.74c0,0.12,0.09,0.29,0.16,0.37c0.09,0.13,0.26,0.16,0.38,0.16h12.96 c-1.03,2.17-1.79,4.49-2.23,6.92H23.7c-1.46,0-2.76-0.59-3.73-1.55c-0.96-0.96-1.54-2.26-1.54-3.73V5.32 c0-1.46,0.59-2.76,1.54-3.73c0.97-0.97,2.31-1.55,3.73-1.55h55.31C79.13,0,79.25,0,79.38,0c0.58,0,1.18,0.25,1.59,0.62h0.08 c0.09,0.05,0.13,0.09,0.21,0.16l27.27,27.61c0.46,0.46,0.8,1.09,0.8,1.8c0,0.21-0.04,0.37-0.08,0.6c0,25.22,0,41.39,0,66.61 c0,1.46-0.59,2.77-1.55,3.73c-0.97,0.96-2.27,1.55-3.73,1.55H90c-0.44-2.43-1.19-4.75-2.23-6.92h14.07c0.16,0,0.16-0.08,0.25-0.16 c0.13-0.08,0.3-0.26,0.3-0.37C102.39,71.78,102.4,57.39,102.4,33.95L102.4,33.95z M81.73,25.43V8.12l19.49,19.74H84.16 c-0.67,0-1.26-0.29-1.72-0.71C82.01,26.74,81.73,26.1,81.73,25.43L81.73,25.43L81.73,25.43z"/><polygon class="st2" points="0,38.51 88.91,38.51 88.91,81.22 0,81.22 0,38.51"/><path class="st0" d="M8.96,48.47h9.34l3.56,13.87l3.57-13.87h9.29v22.8h-5.79V53.89l-4.47,17.38H19.2l-4.46-17.38v17.38H8.96V48.47 L8.96,48.47z M38.86,48.47h11.77c2.56,0,4.48,0.6,5.76,1.82c1.27,1.21,1.91,2.94,1.91,5.19c0,2.3-0.7,4.11-2.09,5.4 c-1.39,1.3-3.52,1.95-6.38,1.95h-3.88v8.44h-7.1V48.47L38.86,48.47z M45.96,58.21h1.74c1.38,0,2.34-0.24,2.9-0.71 c0.55-0.47,0.83-1.08,0.83-1.81c0-0.72-0.24-1.32-0.73-1.82c-0.48-0.5-1.39-0.75-2.72-0.75h-2.03V58.21L45.96,58.21z M67.41,55.06 l-6.01-1.07c0.5-1.9,1.46-3.37,2.88-4.38c1.42-1.01,3.43-1.52,6.03-1.52c2.99,0,5.14,0.55,6.47,1.66c1.33,1.11,1.99,2.5,1.99,4.18 c0,0.98-0.27,1.87-0.81,2.67c-0.54,0.8-1.35,1.5-2.44,2.1c0.88,0.22,1.56,0.48,2.03,0.76c0.76,0.47,1.35,1.08,1.77,1.84 c0.42,0.76,0.63,1.67,0.63,2.73c0,1.33-0.35,2.6-1.05,3.82c-0.7,1.21-1.7,2.16-3.01,2.81s-3.03,0.99-5.17,0.99 c-2.08,0-3.72-0.25-4.92-0.73c-1.2-0.49-2.19-1.2-2.97-2.14c-0.77-0.94-1.37-2.12-1.79-3.54l6.37-0.84 c0.25,1.28,0.64,2.17,1.16,2.66c0.52,0.49,1.19,0.74,2,0.74c0.85,0,1.56-0.31,2.13-0.93c0.57-0.62,0.85-1.45,0.85-2.49 c0-1.05-0.27-1.88-0.82-2.46c-0.54-0.58-1.29-0.87-2.22-0.87c-0.5,0-1.18,0.12-2.05,0.37l0.33-4.53c0.35,0.05,0.62,0.08,0.82,0.08 c0.82,0,1.51-0.27,2.06-0.79s0.83-1.15,0.83-1.87c0-0.7-0.21-1.25-0.62-1.66c-0.42-0.41-0.99-0.62-1.71-0.62 c-0.75,0-1.35,0.22-1.82,0.67C67.89,53.16,67.58,53.94,67.41,55.06L67.41,55.06z"/></g></svg>